# xmcd
#
# Track frame offsets:
#	150
#	34885
#	57032
#	81785
#	103560
#	141175
#	161972
#	191500
#	235282
#	278685
#	301115
#
# Disc length: 4319 seconds
# Revision: 1
# Processed by: cddbd v1.5.2PL0 Copyright (c) Steve Scherf et al.
# Submitted via: dBpowerAMP V12.0
#
DISCID=8e10dd0b
DTITLE=Nick Moss - Here I Am
DYEAR=2011
DGENRE=Blues
TTITLE0=Why You So Mean
TTITLE1=Blood Runs
TTITLE2=Here I Am
TTITLE3=Candy Nation
TTITLE4=It'll Turn Around
TTITLE5=Long Haul Jockey
TTITLE6=Here Comes Moses
TTITLE7=Caught By Surprise
TTITLE8=Katie Ann (Slight Return)
TTITLE9=Sunday Get Together
TTITLE10=It'll Turn Around (Radio Edit)
EXTD=
EXTT0=
EXTT1=
EXTT2=
EXTT3=
EXTT4=
EXTT5=
EXTT6=
EXTT7=
EXTT8=
EXTT9=
EXTT10=
PLAYORDER=
